<?xml version="1.0" encoding="utf-8"?>
<!-- Generator: Adobe Illustrator 27.8.1, SVG Export Plug-In . SVG Version: 6.00 Build 0)  -->
<svg version="1.1" xmlns="http://www.w3.org/2000/svg" xmlns:xlink="http://www.w3.org/1999/xlink" x="0px" y="0px"
	 viewBox="0 0 2834.65 838.71" style="enable-background:new 0 0 2834.65 838.71;" xml:space="preserve">
<style type="text/css">
	.st0{display:none;}
	.st1{display:inline;fill:#1A1A18;}
	.st2{fill:#FFFFFF;}
	.st3{fill:none;}
	.st4{fill:#B40019;}
	.st5{fill:#B40C1C;}
	.st6{fill:#020204;}
</style>
<g id="Ebene_5" class="st0">
	<rect x="-2073.18" y="-2849.82" class="st1" width="1335.54" height="386.12"/>
</g>
<g id="background">
</g>
<g id="logo">
</g>
<g id="rockhand">
</g>
<g id="Text">
</g>
<g id="Ebene_6">
	<g>
		<polygon class="st2" points="310.85,478.41 244.54,363.61 501.7,363.61 474.94,300.01 227.46,300.01 303.52,182.9 533.75,182.9 
			598.36,71.61 209.03,71.61 50.94,314.53 208.37,589.7 597.7,589.7 550.06,478.41 		"/>
		<polygon class="st2" points="1122.75,73.47 989.19,384.81 855.62,73.47 669.67,73.47 539.9,300.01 662.82,589.6 837.7,589.6 
			714.77,300.01 751.08,235.73 901.29,589.6 901.33,589.6 901.29,589.7 1077.08,589.7 1077.04,589.6 1077.08,589.6 1227.3,235.73 
			1227.75,589.6 1402.21,589.6 1402.21,73.47 		"/>
		<path class="st2" d="M1909.93,73.02H1465.8V589.7l151.04-71.54V363.61h197.75L1909.93,73.02z M1661.03,300.01h-44.19V184.3h81.73
			L1661.03,300.01z"/>
	</g>
	<path class="st3" d="M2274.53,432.91c-1.62-3.84-3.16-7.73-4.6-11.67C2271.37,425.17,2272.91,429.06,2274.53,432.91z"/>
	<path class="st3" d="M2254.35,332.9c0,26.6,4.04,52.26,11.55,76.4C2258.39,385.17,2254.35,359.51,2254.35,332.9L2254.35,332.9z"/>
	<path class="st3" d="M2752.57,421.24c-1.44,3.93-2.97,7.82-4.6,11.67C2749.59,429.06,2751.13,425.17,2752.57,421.24z"/>
	<path class="st3" d="M2511.25,76c115.28,0,212.83,75.93,245.36,180.51C2724.08,151.93,2626.53,76,2511.25,76
		c-115.28,0-212.83,75.93-245.35,180.51C2298.42,151.93,2395.97,76,2511.25,76z"/>
	<path class="st3" d="M2756.61,409.3c7.51-24.13,11.55-49.79,11.55-76.4l0,0C2768.16,359.51,2764.11,385.17,2756.61,409.3z"/>
	<line class="st3" x1="1970.82" y1="477.16" x2="2084.9" y2="477.16"/>
	<path class="st4" d="M2764.14,287.43c-0.38-2.11-0.78-4.21-1.21-6.3c-0.86-4.18-1.81-8.32-2.87-12.43
		c-1.06-4.1-2.21-8.17-3.46-12.19C2724.08,151.93,2626.53,76,2511.25,76c-115.28,0-212.83,75.93-245.35,180.51
		c-1.25,4.02-2.41,8.09-3.46,12.19c-1.06,4.11-2.01,8.25-2.87,12.43c-0.43,2.09-0.83,4.19-1.21,6.3
		c-2.64,14.76-4.01,29.96-4.01,45.48c0,26.6,4.04,52.26,11.55,76.4c1.25,4.02,2.6,8,4.04,11.94c1.44,3.93,2.97,7.82,4.6,11.67
		c5.69,13.45,12.49,26.31,20.28,38.47c2.23,3.47,4.54,6.89,6.92,10.25c1.19,1.68,2.41,3.34,3.64,4.99
		c8.63,11.54,18.21,22.33,28.62,32.26c2.97,2.83,6.02,5.6,9.12,8.29c10.88,9.42,22.55,17.94,34.91,25.46
		c1.77,1.07,3.55,2.13,5.34,3.16c37.66,21.65,81.32,34.04,127.88,34.04s90.22-12.38,127.88-34.04c1.79-1.03,3.57-2.08,5.34-3.16
		c12.36-7.51,24.03-16.03,34.91-25.46c3.11-2.69,6.15-5.46,9.12-8.29c10.41-9.93,19.99-20.72,28.62-32.26
		c1.23-1.65,2.45-3.31,3.64-4.99c2.39-3.36,4.7-6.77,6.92-10.25c7.8-12.16,14.6-25.02,20.28-38.47c1.62-3.84,3.16-7.73,4.6-11.67
		c1.44-3.94,2.79-7.92,4.04-11.94c7.51-24.13,11.55-49.79,11.55-76.4C2768.16,317.39,2766.78,302.19,2764.14,287.43z
		 M2650.72,426.11c0,1.23-0.24,2.45-0.71,3.58l-42.24,102.14c-1.45,3.51-4.88,5.8-8.67,5.8h-162.64c-3.14,0-6.08-1.57-7.82-4.2
		l-67.71-102.15c-1.02-1.53-1.56-3.34-1.56-5.18v-76.72c0-3.04,1.47-5.9,3.95-7.65l32.67-23.19c0.6-0.43,1.25-0.78,1.93-1.05
		l0.01-143.79c0-2.97,1.41-5.77,3.8-7.54l57.98-42.96c2.85-2.11,6.64-2.44,9.81-0.84c3.16,1.59,5.16,4.83,5.16,8.38v134.28
		l40.54,15.64c0.59-2.08,1.89-3.93,3.72-5.18c2.56-1.75,5.8-2.13,8.69-1.01l46.47,17.97l0-132.12c0-3.54,2-6.78,5.16-8.38
		c3.16-1.6,6.95-1.27,9.8,0.83l57.87,42.75c2.4,1.77,3.81,4.57,3.81,7.55V426.11z"/>
	<path class="st5" d="M2529.54,301.93c0.46-0.31,0.88-0.66,1.27-1.04C2530.42,301.27,2530,301.62,2529.54,301.93
		c-1.28,0.87-2.73,1.41-4.22,1.58C2526.82,303.34,2528.27,302.8,2529.54,301.93z"/>
	<polygon class="st5" points="2378.13,354.23 2392.04,344.36 2378.13,354.23 2378.13,423.27 2441.5,518.86 2441.5,518.86 
		2378.13,423.27 	"/>
	<path class="st5" d="M2533.26,296.76c-0.28,0.97-0.72,1.89-1.29,2.72C2532.54,298.65,2532.98,297.74,2533.26,296.76L2533.26,296.76
		z"/>
	<polygon class="st5" points="2455.9,149.37 2455.9,149.37 2455.9,318.84 	"/>
	<path d="M2646.92,195.5l-57.87-42.75c-2.85-2.1-6.64-2.42-9.8-0.83c-3.16,1.59-5.16,4.84-5.16,8.38l0,132.12l-46.47-17.97
		c-2.89-1.12-6.13-0.74-8.69,1.01c-1.83,1.25-3.13,3.09-3.72,5.18l-40.54-15.64V130.74c0-3.55-2-6.79-5.16-8.38
		c-3.17-1.6-6.96-1.27-9.81,0.84l-57.98,42.96c-2.39,1.77-3.8,4.57-3.8,7.54l-0.01,143.79c-0.68,0.27-1.32,0.62-1.93,1.05
		l-32.67,23.19c-2.48,1.76-3.95,4.61-3.95,7.65v76.72c0,1.85,0.54,3.65,1.56,5.18l67.71,102.15c1.74,2.62,4.68,4.2,7.82,4.2h162.64
		c3.8,0,7.22-2.28,8.67-5.8l42.24-102.14c0.47-1.13,0.71-2.35,0.71-3.58V203.05C2650.72,200.07,2649.31,197.27,2646.92,195.5z
		 M2631.96,424.24l-39.13,94.62H2441.5h0l-63.37-95.59v-69.05l13.9-9.86v21.92c0,3.55,2,6.79,5.18,8.38
		c3.17,1.59,6.97,1.26,9.82-0.86l5.88-4.38c2.38-1.77,3.77-4.56,3.77-7.52l0.01-183.48l39.2-29.05v0l0,0l0,169.47
		c0,3.54,1.99,6.78,5.15,8.38c3.16,1.6,6.95,1.29,9.8-0.82l5.74-4.23c2.41-1.77,3.82-4.57,3.82-7.55v-27.27l40.45,15.6
		c1.44,0.56,2.97,0.74,4.46,0.56c1.49-0.18,2.94-0.71,4.22-1.58c0.46-0.31,0.88-0.66,1.27-1.04c0.44-0.43,0.81-0.9,1.16-1.4
		c0.57-0.83,1.01-1.75,1.29-2.72h0c0,0,0,0,0,0l34.82,13.46v8.61c0,3.57,2.02,6.83,5.22,8.41c3.2,1.57,7.02,1.21,9.86-0.96l6-4.58
		c2.32-1.77,3.68-4.53,3.68-7.46l0-135.35l39.11,28.88V424.24z"/>
	<path class="st2" d="M2592.85,314.25c0,2.92-1.36,5.68-3.68,7.46l-6,4.58c-2.84,2.17-6.66,2.53-9.86,0.96
		c-3.2-1.58-5.22-4.84-5.22-8.41v-8.61l-34.82-13.46c0,0,0,0,0,0c-0.28,0.97-0.72,1.89-1.29,2.72c-0.34,0.5-0.72,0.98-1.16,1.4
		c-0.39,0.38-0.81,0.73-1.27,1.04c-1.28,0.88-2.73,1.41-4.22,1.58c-1.49,0.17-3.02-0.01-4.46-0.56l-40.45-15.6v27.27
		c0,2.98-1.41,5.78-3.82,7.55l-5.74,4.23c-2.85,2.11-6.63,2.42-9.8,0.82c-3.16-1.6-5.15-4.83-5.15-8.38l-0.01-169.47v0l-39.2,29.05
		l-0.01,183.48c0,2.96-1.4,5.75-3.77,7.52l-5.88,4.38c-2.85,2.12-6.65,2.45-9.82,0.86c-3.17-1.59-5.18-4.83-5.18-8.38v-21.92
		l-13.9,9.86v69.05l63.37,95.59h151.33l39.13-94.62V207.78l-39.11-28.88L2592.85,314.25z"/>
	<g>
		<polygon class="st2" points="-3666.21,-1122.25 -3697.65,-1176.69 -3575.72,-1176.69 -3588.41,-1206.84 -3705.75,-1206.84 
			-3669.69,-1262.37 -3560.52,-1262.37 -3529.89,-1315.14 -3714.49,-1315.14 -3789.45,-1199.96 -3714.8,-1069.48 -3530.2,-1069.48 
			-3552.79,-1122.25 		"/>
		<polygon class="st2" points="-3281.25,-1314.26 -3344.58,-1166.63 -3407.91,-1314.26 -3496.08,-1314.26 -3557.61,-1206.84 
			-3499.32,-1069.53 -3416.41,-1069.53 -3474.69,-1206.84 -3457.48,-1237.32 -3386.25,-1069.53 -3386.24,-1069.53 
			-3386.25,-1069.48 -3302.9,-1069.48 -3302.92,-1069.53 -3302.9,-1069.53 -3231.67,-1237.32 -3231.46,-1069.53 -3148.74,-1069.53 
			-3148.74,-1314.26 		"/>
		<path class="st2" d="M-2908-1314.47h-210.59v244.99l71.61-33.92v-73.28h93.76L-2908-1314.47z M-3026.02-1206.84h-20.95v-54.87
			h38.75L-3026.02-1206.84z"/>
	</g>
	<g>
		<path class="st3" d="M-2735.12-1143.83c-0.77-1.82-1.5-3.67-2.18-5.53C-2736.62-1147.49-2735.89-1145.65-2735.12-1143.83z"/>
		<path class="st3" d="M-2744.69-1191.25c0,12.61,1.92,24.78,5.48,36.22C-2742.78-1166.46-2744.69-1178.63-2744.69-1191.25
			L-2744.69-1191.25z"/>
		<path class="st3" d="M-2508.46-1149.36c-0.68,1.87-1.41,3.71-2.18,5.53C-2509.87-1145.65-2509.14-1147.49-2508.46-1149.36z"/>
		<path class="st3" d="M-2622.88-1313.06c54.66,0,100.91,36,116.34,85.59C-2521.97-1277.05-2568.22-1313.06-2622.88-1313.06
			c-54.66,0-100.91,36-116.34,85.59C-2723.8-1277.05-2677.54-1313.06-2622.88-1313.06z"/>
		<path class="st3" d="M-2506.55-1155.02c3.56-11.44,5.48-23.61,5.48-36.22l0,0C-2501.07-1178.63-2502.99-1166.46-2506.55-1155.02z"
			/>
		<polygon class="st3" points="-2825.04,-1122.85 -2825.04,-1276.19 -2879.13,-1122.85 		"/>
		<polygon class="st5" points="-2879.13,-1122.85 -2825.04,-1276.19 -2825.04,-1314.51 -2811.52,-1314.51 -2811.51,-1314.54 
			-2882.01,-1314.54 -2962.73,-1069.52 -2825.04,-1069.35 -2825.04,-1122.85 		"/>
		<path class="st5" d="M-2743.62-1122.85h-19.74v53.57l74.46,0.09c-11.64-6.32-22.43-14.35-32.06-23.97
			C-2729.93-1102.13-2737.52-1112.11-2743.62-1122.85z"/>
		<polygon class="st5" points="-2763.36,-1314.51 -2811.52,-1314.51 -2825.04,-1314.51 -2825.04,-1276.19 -2825.04,-1122.85 
			-2825.04,-1069.35 -2825.04,-971.35 -2763.36,-971.35 -2763.36,-1069.28 -2763.36,-1122.85 		"/>
		<path class="st5" d="M-2502.97-1212.81c-0.18-1-0.37-2-0.57-2.99c-0.41-1.98-0.86-3.95-1.36-5.89c-0.5-1.95-1.05-3.87-1.64-5.78
			c-15.42-49.59-61.68-85.59-116.34-85.59c-54.66,0-100.91,36-116.34,85.59c-0.59,1.91-1.14,3.83-1.64,5.78
			c-0.5,1.95-0.95,3.91-1.36,5.89c-0.2,0.99-0.39,1.99-0.57,2.99c-1.25,7-1.9,14.2-1.9,21.56c0,12.61,1.92,24.78,5.48,36.22
			c0.59,1.91,1.23,3.79,1.92,5.66c0.68,1.87,1.41,3.71,2.18,5.53c2.7,6.38,5.92,12.47,9.62,18.24c1.06,1.65,2.15,3.27,3.28,4.86
			c0.57,0.8,1.14,1.59,1.73,2.37c4.09,5.47,8.63,10.59,13.57,15.29c1.41,1.34,2.85,2.66,4.33,3.93c5.16,4.47,10.69,8.51,16.55,12.07
			c0.84,0.51,1.68,1.01,2.53,1.5c17.86,10.27,38.56,16.14,60.63,16.14c22.07,0,42.78-5.87,60.63-16.14c0.85-0.49,1.69-0.99,2.53-1.5
			c5.86-3.56,11.4-7.6,16.55-12.07c1.47-1.28,2.92-2.59,4.33-3.93c4.94-4.71,9.48-9.82,13.57-15.29c0.58-0.78,1.16-1.57,1.73-2.37
			c1.13-1.59,2.23-3.21,3.28-4.86c3.7-5.77,6.92-11.87,9.62-18.24c0.77-1.82,1.5-3.67,2.18-5.53c0.68-1.87,1.32-3.75,1.92-5.66
			c3.56-11.44,5.48-23.61,5.48-36.22C-2501.07-1198.6-2501.72-1205.81-2502.97-1212.81z M-2556.75-1147.05
			c0,0.58-0.11,1.16-0.34,1.7l-20.03,48.43c-0.69,1.67-2.31,2.75-4.11,2.75h-77.12c-1.49,0-2.88-0.75-3.71-1.99l-32.11-48.43
			c-0.48-0.73-0.74-1.58-0.74-2.46v-36.38c0-1.44,0.7-2.8,1.87-3.63l15.49-11c0.29-0.2,0.59-0.37,0.91-0.5l0-68.18
			c0-1.41,0.67-2.74,1.8-3.58l27.49-20.37c1.35-1,3.15-1.16,4.65-0.4c1.5,0.76,2.45,2.29,2.45,3.97v63.67l19.22,7.41
			c0.28-0.99,0.9-1.86,1.76-2.45c1.21-0.83,2.75-1.01,4.12-0.48l22.03,8.52l0-62.65c0-1.68,0.95-3.22,2.45-3.97
			c1.5-0.76,3.3-0.6,4.65,0.39l27.44,20.27c1.14,0.84,1.81,2.17,1.81,3.58V-1147.05z"/>
		<path class="st5" d="M-2614.21-1205.93c0.22-0.15,0.42-0.31,0.6-0.49C-2613.79-1206.25-2613.99-1206.08-2614.21-1205.93
			c-0.61,0.41-1.29,0.67-2,0.75C-2615.5-1205.26-2614.81-1205.52-2614.21-1205.93z"/>
		<polygon class="st5" points="-2686,-1181.14 -2679.41,-1185.81 -2686,-1181.14 -2686,-1148.4 -2655.96,-1103.07 
			-2655.95,-1103.07 -2686,-1148.4 		"/>
		<path class="st5" d="M-2612.45-1208.38c-0.13,0.46-0.34,0.89-0.61,1.29C-2612.79-1207.49-2612.58-1207.92-2612.45-1208.38
			L-2612.45-1208.38z"/>
		<polygon class="st5" points="-2649.13,-1278.27 -2649.13,-1278.27 -2649.12,-1197.92 		"/>
		<path class="st6" d="M-2558.56-1256.4l-27.44-20.27c-1.35-1-3.15-1.15-4.65-0.39c-1.5,0.76-2.45,2.29-2.45,3.97l0,62.65
			l-22.03-8.52c-1.37-0.53-2.91-0.35-4.12,0.48c-0.87,0.59-1.48,1.47-1.76,2.45l-19.22-7.41v-63.67c0-1.68-0.95-3.22-2.45-3.97
			c-1.5-0.76-3.3-0.6-4.65,0.4l-27.49,20.37c-1.13,0.84-1.8,2.17-1.8,3.58l0,68.18c-0.32,0.13-0.63,0.3-0.91,0.5l-15.49,11
			c-1.18,0.83-1.87,2.19-1.87,3.63v36.38c0,0.88,0.26,1.73,0.74,2.46l32.11,48.43c0.83,1.24,2.22,1.99,3.71,1.99h77.12
			c1.8,0,3.42-1.08,4.11-2.75l20.03-48.43c0.22-0.54,0.34-1.11,0.34-1.7v-105.76C-2556.75-1254.23-2557.42-1255.56-2558.56-1256.4z
			 M-2565.65-1147.94l-18.56,44.87h-71.75h0l-30.05-45.32v-32.74l6.59-4.68v10.39c0,1.68,0.95,3.22,2.45,3.98
			c1.5,0.75,3.3,0.6,4.65-0.41l2.79-2.08c1.13-0.84,1.79-2.16,1.79-3.57l0.01-87l18.59-13.78v0l0,0l0,80.35
			c0,1.68,0.94,3.21,2.44,3.97c1.5,0.76,3.29,0.61,4.65-0.39l2.72-2.01c1.14-0.84,1.81-2.17,1.81-3.58v-12.93l19.18,7.4
			c0.68,0.26,1.41,0.35,2.12,0.27c0.71-0.08,1.4-0.34,2-0.75c0.22-0.15,0.42-0.31,0.6-0.49c0.21-0.2,0.39-0.43,0.55-0.67
			c0.27-0.39,0.48-0.83,0.61-1.29h0c0,0,0,0,0,0l16.51,6.38v4.08c0,1.69,0.96,3.24,2.48,3.99c1.52,0.75,3.33,0.57,4.67-0.45
			l2.85-2.17c1.1-0.84,1.75-2.15,1.75-3.54l0-64.18l18.54,13.69V-1147.94z"/>
		<path class="st2" d="M-2584.19-1200.09c0,1.39-0.65,2.69-1.75,3.54l-2.85,2.17c-1.34,1.03-3.16,1.2-4.67,0.45
			c-1.52-0.75-2.48-2.3-2.48-3.99v-4.08l-16.51-6.38c0,0,0,0,0,0c-0.13,0.46-0.34,0.89-0.61,1.29c-0.16,0.24-0.34,0.46-0.55,0.67
			c-0.18,0.18-0.38,0.35-0.6,0.49c-0.61,0.42-1.29,0.67-2,0.75s-1.43,0-2.12-0.27l-19.18-7.4v12.93c0,1.41-0.67,2.74-1.81,3.58
			l-2.72,2.01c-1.35,1-3.15,1.15-4.65,0.39c-1.5-0.76-2.44-2.29-2.44-3.97l0-80.35v0l-18.59,13.78l-0.01,87
			c0,1.4-0.66,2.73-1.79,3.57l-2.79,2.08c-1.35,1.01-3.15,1.16-4.65,0.41c-1.5-0.75-2.45-2.29-2.45-3.98v-10.39l-6.59,4.68v32.74
			l30.05,45.32h71.75l18.56-44.87v-102.64l-18.54-13.69L-2584.19-1200.09z"/>
	</g>
	<rect x="-2853.43" y="-1284.01" class="st5" width="45.67" height="22.14"/>
	<path class="st4" d="M2372,590.32c-24.54-13.32-47.31-30.25-67.61-50.55c-18.92-18.92-34.92-39.97-47.79-62.61h-41.63V72.94H2113.4
		h0l0.02-0.07h-148.68l-170.24,516.76l290.38,0.35v206.68h130.07V590.13L2372,590.32z M2084.9,477.16h-114.08l103.48-293.36h10.6
		V477.16z"/>
</g>
</svg>
